<?xml version="1.0" encoding="UTF-8" standalone="no"?>
<!-- Created with Inkscape (http://www.inkscape.org/) -->

<svg
   width="192"
   height="192"
   viewBox="0 0 32 32"
   version="1.1"
   id="svg5"
   inkscape:version="1.2.2 (b0a8486541, 2022-12-01)"
   sodipodi:docname="rubiks_cube.svg"
   inkscape:export-filename="rubiks_cube.png"
   inkscape:export-xdpi="96"
   inkscape:export-ydpi="96"
   xml:space="preserve"
   xmlns:inkscape="http://www.inkscape.org/namespaces/inkscape"
   xmlns:sodipodi="http://sodipodi.sourceforge.net/DTD/sodipodi-0.dtd"
   xmlns="http://www.w3.org/2000/svg"
   xmlns:svg="http://www.w3.org/2000/svg"
   xmlns:rdf="http://www.w3.org/1999/02/22-rdf-syntax-ns#"
   xmlns:cc="http://creativecommons.org/ns#"><sodipodi:namedview
     id="namedview7"
     pagecolor="#505050"
     bordercolor="#eeeeee"
     borderopacity="1"
     inkscape:showpageshadow="false"
     inkscape:pageopacity="0"
     inkscape:pagecheckerboard="false"
     inkscape:deskcolor="#505050"
     inkscape:document-units="px"
     showgrid="true"
     borderlayer="true"
     showborder="true"
     shape-rendering="auto"
     showguides="true"
     inkscape:zoom="2.8284271"
     inkscape:cx="51.442019"
     inkscape:cy="79.549514"
     inkscape:window-width="1920"
     inkscape:window-height="1052"
     inkscape:window-x="1920"
     inkscape:window-y="0"
     inkscape:window-maximized="1"
     inkscape:current-layer="layer1"><inkscape:grid
       type="axonomgrid"
       id="grid59"
       units="px"
       spacingy="4.6666667"
       empspacing="3"
       originx="16"
       originy="16"
       visible="true"
       enabled="false" /><inkscape:grid
       type="xygrid"
       id="grid20539"
       empspacing="4"
       originx="0"
       originy="0"
       enabled="false"
       color="#d2232f"
       opacity="0.14901961"
       empcolor="#f21200"
       empopacity="0.30196078" /></sodipodi:namedview><defs
     id="defs2"><inkscape:path-effect
       effect="offset"
       id="path-effect34990"
       is_visible="true"
       lpeversion="1.2"
       linejoin_type="miter"
       unit="mm"
       offset="-0.3"
       miter_limit="4"
       attempt_force_join="false"
       update_on_knot_move="true" /><inkscape:path-effect
       effect="perspective-envelope"
       up_left_point="-2.8057679,987.96472"
       up_right_point="69.194231,1029.9647"
       down_left_point="-74.805767,1029.9647"
       down_right_point="-2.8057679,1071.9647"
       id="path-effect34988"
       is_visible="true"
       lpeversion="1"
       deform_type="perspective"
       horizontal_mirror="false"
       vertical_mirror="false"
       overflow_perspective="false" /><inkscape:path-effect
       effect="perspective-envelope"
       up_left_point="-2.8057679,1071.9647"
       up_right_point="69.194231,1029.9647"
       down_left_point="-2.8057679,1155.9647"
       down_right_point="69.194231,1113.9647"
       id="path-effect34966"
       is_visible="true"
       lpeversion="1"
       deform_type="perspective"
       horizontal_mirror="false"
       vertical_mirror="false"
       overflow_perspective="false" /><inkscape:path-effect
       effect="perspective-envelope"
       up_left_point="-3.7439525,1025.2"
       up_right_point="68.256046,1067.2"
       down_left_point="-3.7439525,1109.2"
       down_right_point="68.256046,1151.2"
       id="path-effect34890"
       is_visible="true"
       lpeversion="1"
       deform_type="perspective"
       horizontal_mirror="false"
       vertical_mirror="false"
       overflow_perspective="false" /><linearGradient
       id="linearGradient3223"
       inkscape:swatch="solid"><stop
         style="stop-color:#ff0000;stop-opacity:1;"
         offset="0"
         id="stop3221" /></linearGradient><inkscape:perspective
       sodipodi:type="inkscape:persp3d"
       inkscape:vp_x="2.0592576 : 20.581147 : 1"
       inkscape:vp_y="0 : 666.66667 : 0"
       inkscape:vp_z="21.333333 : 21.333333 : 1"
       inkscape:persp3d-origin="10.666667 : 17.777778 : 1"
       id="perspective121" /></defs><g
     inkscape:label="Layer 1"
     inkscape:groupmode="layer"
     id="layer1"
     style="display:inline"><rect
       style="mix-blend-mode:normal;fill:#343434;fill-opacity:1;stroke:#aaaaaa;stroke-width:0.969697;stroke-linecap:butt;stroke-linejoin:round;stroke-dasharray:none;stroke-dashoffset:0;stroke-opacity:1"
       id="rect4023"
       width="31.030304"
       height="31.030304"
       x="0.4848485"
       y="0.4848485"
       inkscape:label="Background"
       ry="7.4426575" /><path
       style="fill:#dc0000;fill-opacity:1;stroke:#000000;stroke-width:0.66666667;stroke-linecap:butt;stroke-linejoin:round;stroke-dasharray:none;stroke-dashoffset:0;stroke-opacity:1"
       d="m 4,9 v 14 l 12,7 V 16 Z"
       id="path484"
       sodipodi:nodetypes="ccccc"
       inkscape:label="FaceRed" /><path
       style="fill:#00c800;fill-opacity:1;stroke:#000000;stroke-width:0.66666667;stroke-linecap:butt;stroke-linejoin:round;stroke-dasharray:none;stroke-dashoffset:0;stroke-opacity:1"
       d="M 28,9 V 23 L 16,30 V 16 Z"
       id="path3227"
       sodipodi:nodetypes="ccccc"
       inkscape:label="FaceGreen" /><path
       style="fill:#e6dc00;fill-opacity:1;stroke:#000000;stroke-width:0.66666667;stroke-linecap:butt;stroke-linejoin:round;stroke-dasharray:none;stroke-dashoffset:0;stroke-opacity:1"
       d="M 28,9 16,2 4,9 16,16 Z"
       id="path3955"
       sodipodi:nodetypes="ccccc"
       inkscape:label="FaceYellow" /><g
       transform="matrix(0.15058597,0,0,0.15058597,5.1426922,-144.35132)"
       id="g33425"
       class="UnoptimicedTransforms"
       inkscape:path-effect="#path-effect34890"
       inkscape:label="GodotRed"
       style="display:inline"><path
         d="m -68.467455,-77.181476 c 0,0 -0.241244,1.965476 -0.382279,2.031274 l -26.857546,12.472217 c -2.137053,0.992211 -3.796814,-0.140712 -3.946757,-2.693368 l -0.737833,-12.607315 -20.77819,10.293114 -1.41332,12.640472 c -0.31473,2.811819 -2.1764,5.879025 -4.33127,7.136032 l -28.34658,16.535505 c -2.15412,1.256574 -4.01579,0.361309 -4.33052,-2.083324 l -1.41406,-10.991165 -20.77819,13.948106 -0.73783,13.468125 c -0.14995,2.728504 -1.80971,5.797814 -3.94676,7.2988324 l -26.87091,18.868466 c -0.13881,0.097444 -0.2405,-1.6698153 -0.37931,-1.5888438 l -0.0364,-7.14417562 22.75713,-17.79934998 0.74526,-13.588676 c 0.15069,-2.7509 1.89359,-5.920868 4.05513,-7.373032 l 28.61604,-19.209266 c 0.10837,-0.07237 0.21526,-0.140213 0.32215,-0.202565 2.15041,-1.254409 4.00911,-0.356497 4.32384,2.088136 l 1.45415,11.310037 20.78783,-12.126239 1.45415,-13.006542 c 0.31399,-2.810471 2.17491,-5.878159 4.3283,-7.1343 0.1054,-0.06149 0.21081,-0.118397 0.31398,-0.169433 l 28.619747,-14.178269 c 2.160807,-1.06921 3.904446,0.06694 4.055131,2.642045 l 0.744517,12.71964 22.747485,-8.724879 z"
         fill="#ffffff"
         stroke-width="0.32031"
         transform="matrix(0.41022,0,0,-0.41022,90.133,1088.2)"
         id="path33409"
         inkscape:original-d="m 0,0 c 0,0 -0.325,1.994 -0.515,1.976 l -36.182,-3.491 c -2.879,-0.278 -5.115,-2.574 -5.317,-5.459 l -0.994,-14.247 -27.992,-1.997 -1.904,12.912 c -0.424,2.872 -2.932,5.037 -5.835,5.037 h -38.188 c -2.902,0 -5.41,-2.165 -5.834,-5.037 l -1.905,-12.912 -27.992,1.997 -0.994,14.247 c -0.202,2.886 -2.438,5.182 -5.317,5.46 l -36.2,3.49 c -0.187,0.018 -0.324,-1.978 -0.511,-1.978 l -0.049,-7.83 30.658,-4.944 1.004,-14.374 c 0.203,-2.91 2.551,-5.263 5.463,-5.472 l 38.551,-2.75 c 0.146,-0.01 0.29,-0.016 0.434,-0.016 2.897,0 5.401,2.166 5.825,5.038 l 1.959,13.286 h 28.005 l 1.959,-13.286 c 0.423,-2.871 2.93,-5.037 5.831,-5.037 0.142,0 0.284,0.005 0.423,0.015 l 38.556,2.75 c 2.911,0.209 5.26,2.562 5.463,5.472 l 1.003,14.374 30.645,4.966 z" /><path
         d="m 25.400154,1042.2046 c -0.16611,-0.1061 -0.332108,-0.1791 -0.49438,-0.2298 -3.215379,-0.9944 -6.448944,-1.6411 -9.523584,-1.5267 -0.711819,0.026 -1.152851,0.6778 -1.132289,1.6719 0.05551,2.6741 0.242461,5.3531 0.478428,8.0844 -0.799892,0.1237 -1.598968,0.1947 -2.480586,0.5531 -0.627628,0.2281 -1.327586,0.5738 -2.012274,0.8727 -1.5949593,-2.1653 -3.2064714,-4.3343 -4.9132935,-6.389 -0.818375,-0.9853 -1.8106686,-1.3442 -2.4341924,-0.8802 -2.32077044,1.7254 -4.526857,3.8075 -6.3485857,6.5671 -0.386466,0.5861 -0.3769796,1.6001 0.024646,2.6346 1.2048113,3.1055 2.48800845,6.0996 3.83905091,9.0653 v 27.2751 c 0,7.5251 4.06181219,15.635 9.87171749,22.4485 5.809758,6.8139 13.498548,12.8637 21.953976,17.8325 l 0.05512,0.032 c 8.455429,4.8958 16.144071,7.8165 21.952492,7.7796 5.808421,-0.037 9.868749,-3.409 9.868749,-10.9331 l 0.0029,-26.5652 c 1.372272,-1.6812 2.510796,-3.4167 3.840461,-5.2917 0.40103,-0.5658 0.410509,-1.5679 0.02464,-2.604 -1.821358,-4.885 -4.029448,-9.5435 -6.35007,-13.9764 -0.623287,-1.1905 -1.614704,-1.9889 -2.432708,-1.959 -1.706154,0.064 -3.31826,0.3543 -4.913294,0.6586 -0.684599,-1.098 -1.382515,-2.2593 -2.012274,-3.2221 -0.0025,-0 -0.0048,-0 -0.0073,-0.013 -0.879985,-1.3836 -1.676388,-2.3844 -2.473311,-3.4375 0.235381,-2.4561 0.422675,-4.9174 0.478429,-7.5262 0.02063,-0.9702 -0.420441,-2.1361 -1.13229,-2.9931 -3.074789,-3.7012 -6.308057,-6.8269 -9.525068,-9.5849 -0.867589,-0.7435 -1.760787,-0.7889 -2.215291,-0.1126 -1.039578,1.5476 -1.931217,3.3166 -2.793758,5.0746 -0.768419,-0.5342 -1.548269,-1.1209 -2.292118,-1.5658 -0.0082,-0 -0.01643,-0.01 -0.02464,-0.014 l -0.04494,-0.026 c -0.0082,-0 -0.01643,-0.01 -0.02464,-0.014 -0.745334,-0.4238 -1.526223,-0.7479 -2.295013,-1.11 -0.827802,-2.654 -1.689972,-5.3457 -2.683528,-8.0033 -0.03287,-0.1113 -0.07015,-0.2225 -0.111633,-0.3333 -0.362252,-0.9612 -1.011667,-1.8079 -1.719441,-2.2416 z"
         fill="#ffffff"
         id="path33411"
         inkscape:original-d="m 40.764,1026.7 c -0.22378,-0.01 -0.44741,0.016 -0.66602,0.064 -4.3317,0.963 -8.6879,2.3175 -12.83,4.4024 -0.95895,0.4827 -1.5531,1.4756 -1.5254,2.5488 0.07479,2.8867 0.32664,5.695 0.64453,8.5293 -1.0776,0.645 -2.1541,1.232 -3.3418,2.1856 -0.84553,0.6493 -1.7885,1.4733 -2.7109,2.2363 -2.1487,-1.3494 -4.3197,-2.6924 -6.6191,-3.8496 -1.1025,-0.5551 -2.4393,-0.3147 -3.2793,0.5898 -3.1265,3.3648 -6.0985,7.0462 -8.5527,11.223 -0.52064,0.8868 -0.50786,1.9888 0.033203,2.8633 1.6231,2.6255 3.3518,5.0794 5.1719,7.4589 v 29.805 c 0,8.223 5.472,14.496 13.299,18.238 7.8268,3.7426 18.185,5.4523 29.576,5.4922 h 0.07425 c 11.391,-0.04 21.749,-1.7494 29.574,-5.4922 7.825,-3.7428 13.295,-10.016 13.295,-18.238 l 0.0039,-29.031 c 1.8487,-2.7118 3.3825,-5.3341 5.1738,-8.2305 0.54026,-0.874 0.55303,-1.975 0.0332,-2.8613 -2.4537,-4.1771 -5.4284,-7.8601 -8.5547,-11.225 -0.83968,-0.9036 -2.1753,-1.144 -3.2773,-0.5899 -2.2985,1.157 -4.4703,2.5023 -6.6191,3.8516 -0.92228,-0.7635 -1.8625,-1.5876 -2.7109,-2.2383 -0.0034,0 -0.0064,0 -0.0098,-0.01 -1.1855,-0.951 -2.2584,-1.537 -3.332,-2.1797 0.3171,-2.834 0.56942,-5.643 0.64453,-8.5293 0.02779,-1.0733 -0.56641,-2.0662 -1.5254,-2.5489 -4.1423,-2.0846 -8.4981,-3.4392 -12.832,-4.4023 -1.1688,-0.2595 -2.3721,0.2603 -2.9844,1.2891 -1.4005,2.3538 -2.6017,4.8552 -3.7637,7.3261 -1.0352,-0.094 -2.0858,-0.238 -3.0879,-0.25 -0.01107,-10e-5 -0.02213,-10e-5 -0.0332,0 h -0.06054 c -0.01107,-10e-5 -0.02213,-10e-5 -0.0332,0 -1.0041,0.012 -2.0561,0.1556 -3.0918,0.25 -1.1152,-2.3725 -2.2767,-4.7643 -3.6152,-7.0351 -0.04428,-0.1006 -0.0945,-0.1984 -0.15039,-0.293 -0.48802,-0.8195 -1.3629,-1.3307 -2.3164,-1.3535 z" /><path
         d="m 25.351905,1044.6473 c -3.101066,-0.9591 -6.168654,-1.5653 -9.044806,-1.4584 0.0658,3.1693 0.229961,6.2648 0.562782,9.506 -1.116924,0.2308 -2.290708,0.3032 -3.333997,0.7273 -1.05999,0.3869 -2.142546,0.7173 -3.102402,1.3331 -1.9174098,-2.682 -3.9468313,-5.3351 -6.037566,-7.8518 -2.2535932,1.6755 -4.36080668,3.6734 -6.0821035,6.2805 1.29507377,3.3381 2.64700698,6.5478 4.106795,9.6968 l 0.040868,0.024 v 22.1642 c 0.032866,0.02 0.065732,0.038 0.098294,0.066 l 11.0215252,7.7394 c 0.577331,0.4054 1.029779,1.2422 1.070012,1.9789 l 0.339894,6.1964 9.614143,6.4539 0.662361,-5.1495 c 0.08587,-0.6677 0.585236,-0.9084 1.174155,-0.5649 l 11.627976,6.783 c 0.588599,0.3434 1.087975,1.1666 1.173858,1.9346 l 0.66236,5.9222 9.614886,4.7631 0.339612,-5.8001 c 0.04051,-0.6896 0.492651,-0.9983 1.070012,-0.7305 l 11.017072,5.1164 c 0.03259,0.019 0.06516,0.029 0.09801,0.048 v -1.7685 l 0.0043,0 v -20.3935 l 0.04087,0.024 c 1.460085,-1.4457 2.811128,-3.0787 4.106795,-4.9056 -1.720703,-4.615 -3.829104,-9.0722 -6.082697,-13.3766 -2.090067,0.078 -4.12023,0.3629 -6.037715,0.8079 -0.959484,-1.7355 -2.040184,-3.3277 -3.101659,-4.9521 -1.042918,-1.6412 -2.218186,-3.0839 -3.332958,-4.6163 0.331908,-2.8536 0.495991,-5.7577 0.56207,-8.8499 -2.876301,-3.4624 -5.943518,-6.435 -9.046291,-9.0948 -1.238734,1.8441 -2.371543,3.9626 -3.358121,6.1042 -1.169924,-0.9234 -2.345266,-1.6983 -3.522168,-2.4021 l -0.02286,-0.013 -0.02229,-0.013 c -1.179054,-0.6704 -2.353357,-1.2661 -3.523578,-1.7078 -0.985984,-3.2924 -2.118125,-6.7321 -3.358714,-10.0224 z m -22.9085612,43.343 c 0.00428,1.3156 0.018147,2.7623 0.018147,3.0488 0,12.9041 13.2780877,26.8514 29.7747457,36.5458 l 0.04044,0.024 c 16.496659,9.5517 29.770293,11.0925 29.770293,-1.8112 0,-0.2918 0.0143,-1.7162 0.01914,-3.0271 l -9.906605,-4.6009 -0.341469,5.831 c -0.04108,0.7027 -0.510042,1.0075 -1.099554,0.7158 l -11.740063,-5.8155 -0.08558,-0.05 c -0.583418,-0.3403 -1.086787,-1.1617 -1.172967,-1.9343 l -0.673228,-6.0216 -9.579255,-5.5879 -0.67322,5.2362 c -0.09043,0.7047 -0.639825,0.9289 -1.258554,0.512 l -11.740062,-7.8811 c -0.589512,-0.396 -1.058432,-1.2478 -1.099554,-1.9986 l -0.341328,-6.2294 z"
         fill="#478cbf"
         id="path33413"
         inkscape:original-d="m 40.699,1029.4 c -4.1777,0.9287 -8.3103,2.2217 -12.185,4.1719 0.08864,3.4213 0.3098,6.6993 0.75817,10.029 -1.5047,0.9641 -3.086,1.7915 -4.4915,2.9199 -1.428,1.0985 -2.8864,2.1496 -4.1795,3.4344 -2.5831,-1.7086 -5.3171,-3.3141 -8.1337,-4.7315 -3.036,3.2674 -5.8748,6.7939 -8.1937,10.74 1.7447,2.8222 3.566,5.4678 5.5326,7.9784 h 0.055057 v 24.22 c 0.044277,4e-4 0.088553,0 0.13242,0.01 l 14.848,1.4317 c 0.77777,0.075 1.3873,0.701 1.4415,1.4804 l 0.4579,6.5545 12.952,0.924 0.89232,-6.0493 c 0.11568,-0.7844 0.78842,-1.3657 1.5818,-1.3657 h 15.665 c 0.79295,0 1.4657,0.5813 1.5814,1.3657 l 0.89232,6.0493 12.953,-0.924 0.45752,-6.5545 c 0.05457,-0.7794 0.66369,-1.405 1.4415,-1.4804 l 14.842,-1.4317 c 0.0439,0 0.08778,-0.01 0.13204,-0.01 v -1.9326 h 0.0058 v -22.285 h 0.05506 c 1.967,-2.5105 3.7871,-5.1561 5.5326,-7.9784 -2.3181,-3.9462 -5.1585,-7.4728 -8.1945,-10.74 -2.8157,1.4174 -5.5507,3.023 -8.1339,4.7315 -1.2926,-1.2848 -2.7485,-2.3358 -4.1785,-3.4343 -1.405,-1.1286 -2.9883,-1.9559 -4.4901,-2.9199 0.44714,-3.3298 0.66819,-6.6079 0.75721,-10.029 -3.8749,-1.9501 -8.007,-3.2432 -12.187,-4.1719 -1.6688,2.8047 -3.1949,5.8418 -4.524,8.811 -1.5761,-0.2633 -3.1595,-0.3609 -4.745,-0.3798 h -0.0308 -0.03003 c -1.5884,0.019 -3.1704,0.1165 -4.7469,0.3798 -1.3283,-2.9692 -2.8535,-6.0063 -4.5248,-8.811 z m -30.862,61.966 c 0.00577,1.4349 0.024448,3.007 0.024448,3.32 0,14.101 17.888,20.878 40.112,20.956 h 0.05448 c 22.224,-0.078 40.106,-6.8554 40.106,-20.956 0,-0.3188 0.01926,-1.8844 0.02579,-3.32 l -13.346,1.2872 -0.46002,6.5895 c -0.05535,0.7941 -0.68712,1.4261 -1.4813,1.4831 l -15.816,1.1286 h -0.11529 c -0.78597,0 -1.4641,-0.5767 -1.5802,-1.366 l -0.90696,-6.151 h -12.905 l -0.90695,6.151 c -0.12183,0.8277 -0.86196,1.4229 -1.6955,1.3617 l -15.816,-1.1285 c -0.79418,-0.057 -1.4259,-0.6889 -1.4813,-1.4831 l -0.45983,-6.5896 z"
         style="fill:#dc0000;fill-opacity:1" /><g
         fill="#ffffff"
         stroke-width="0.32031"
         id="g33421"><path
           d="m -35.653467,-25.027117 c 0,-11.029031 -7.248464,-15.735081 -16.191577,-10.518265 -8.938659,5.214218 -16.18935,18.378108 -16.18935,29.4071392 0,11.0217101 7.250691,15.7218851 16.18935,10.5076673 8.943113,-5.21681594 16.191577,-18.3748315 16.191577,-29.3965415"
           transform="matrix(0.41022,0,0,-0.41022,37.9,1073.8)"
           id="path33415"
           inkscape:original-d="m 0,0 c 0,-12.052 -9.765,-21.815 -21.813,-21.815 -12.042,0 -21.81,9.763 -21.81,21.815 0,12.044 9.768,21.802 21.81,21.802 C -9.765,21.802 0,12.044 0,0" /><path
           d="m -43.254969,-35.771381 c -2.878602,1.679184 -5.21162,5.655525 -5.21162,8.879495 v 18.3765323 c 0,3.2212239 2.333018,4.478456 5.21162,2.7992718 2.878602,-1.6791843 5.216816,-5.6613021 5.216816,-8.8825261 v -18.376533 c 0,-3.223969 -2.338214,-4.475425 -5.216816,-2.79624"
           transform="matrix(0.41022,0,0,-0.41022,50,1083.6)"
           id="path33417"
           inkscape:original-d="m 0,0 c -3.878,0 -7.021,2.858 -7.021,6.381 v 20.081 c 0,3.52 3.143,6.381 7.021,6.381 3.878,0 7.028,-2.861 7.028,-6.381 V 6.381 C 7.028,2.858 3.878,0 0,0" /><path
           d="m -50.857099,-50.572184 c 0,-11.029031 7.248464,-24.191622 16.193061,-29.409304 8.937917,-5.213785 16.187866,-0.508601 16.187866,10.52043 0,11.02171 -7.249949,24.180592 -16.187866,29.394377 -8.944597,5.217682 -16.193061,0.516208 -16.193061,-10.505503"
           transform="matrix(0.41022,0,0,-0.41022,62.101,1073.8)"
           id="path33419"
           inkscape:original-d="m 0,0 c 0,-12.052 9.765,-21.815 21.815,-21.815 12.041,0 21.808,9.763 21.808,21.815 0,12.044 -9.767,21.802 -21.808,21.802 C 9.765,21.802 0,12.044 0,0" /></g><path
         d="m 17.26688,1075.6207 c -2.434786,-1.4203 -4.408833,-0.1375 -4.408833,2.8634 0,3.0011 1.974047,6.5847 4.408833,8.005 2.436048,1.421 4.408981,0.1398 4.408981,-2.8612 0,-3.001 -1.972933,-6.5862 -4.408981,-8.0072 z m 29.975907,17.4859 c -2.434193,-1.4199 -4.406384,-0.136 -4.406384,2.8649 0,3.0011 1.972191,6.5836 4.406384,8.0036 2.436641,1.4213 4.408907,0.1397 4.408907,-2.8613 0,-3.001 -1.97234,-6.5858 -4.408907,-8.0072 z"
         fill="#414042"
         id="path33423"
         inkscape:original-d="m 29.807,1068.4 c -3.2801,0 -5.9395,2.6601 -5.9395,5.9394 0,3.2794 2.6594,5.9371 5.9395,5.9371 3.2818,0 5.9397,-2.6577 5.9397,-5.9371 0,-3.2793 -2.6579,-5.9394 -5.9397,-5.9394 z m 40.383,0 c -3.2793,0 -5.9362,2.6601 -5.9362,5.9394 0,3.2794 2.6569,5.9371 5.9362,5.9371 3.2826,0 5.9396,-2.6577 5.9396,-5.9371 0,-3.2793 -2.6571,-5.9394 -5.9396,-5.9394 z" /></g><g
       transform="matrix(0.15174296,0,0,0.15174296,16.963009,-146.3346)"
       id="g34962"
       class="UnoptimicedTransforms"
       inkscape:path-effect="#path-effect34966"
       inkscape:label="GodotGreen"
       style="display:inline"><path
         d="m -66.180426,-4.0729645 c 0,0 -0.241244,1.6840242 -0.382279,1.5852816 L -93.420251,-21.34927 c -2.137054,-1.501018 -3.796815,-4.570329 -3.946757,-7.297917 l -0.737837,-13.468125 -20.778185,-13.948106 -1.41332,10.991598 c -0.31473,2.444632 -2.1764,3.339897 -4.33127,2.082891 l -28.34658,-16.535505 c -2.15412,-1.256574 -4.01579,-4.32378 -4.33052,-7.135599 l -1.41406,-12.640905 -20.77819,-10.293115 -0.73784,12.607316 c -0.14994,2.553571 -1.8097,3.686493 -3.94675,2.694282 l -26.87091,-12.480925 c -0.13881,-0.0645 -0.2405,-1.950401 -0.37931,-2.031373 l -0.0364,-7.18661 22.75713,8.75064 0.74526,-12.719206 c 0.15069,-2.575101 1.89358,-3.711691 4.05513,-2.642041 l 28.61603,14.1761 c 0.10838,0.05407 0.21527,0.110929 0.32216,0.173281 2.15041,1.254409 4.00911,4.320798 4.32384,7.132617 l 1.45414,13.006542 20.78784,12.126239 1.45415,-11.310037 c 0.31399,-2.444151 2.17491,-3.340764 4.32829,-2.084624 0.10541,0.06149 0.21081,0.127549 0.31399,0.196887 l 28.619745,19.211432 c 2.160807,1.45173 3.904447,4.622132 4.055132,7.373032 l 0.744517,13.588242 22.747485,17.813854 z"
         fill="#ffffff"
         stroke-width="0.32031"
         transform="matrix(0.41022,0,0,-0.41022,90.133,1088.2)"
         id="path34946"
         inkscape:original-d="m 0,0 c 0,0 -0.325,1.994 -0.515,1.976 l -36.182,-3.491 c -2.879,-0.278 -5.115,-2.574 -5.317,-5.459 l -0.994,-14.247 -27.992,-1.997 -1.904,12.912 c -0.424,2.872 -2.932,5.037 -5.835,5.037 h -38.188 c -2.902,0 -5.41,-2.165 -5.834,-5.037 l -1.905,-12.912 -27.992,1.997 -0.994,14.247 c -0.202,2.886 -2.438,5.182 -5.317,5.46 l -36.2,3.49 c -0.187,0.018 -0.324,-1.978 -0.511,-1.978 l -0.049,-7.83 30.658,-4.944 1.004,-14.374 c 0.203,-2.91 2.551,-5.263 5.463,-5.472 l 38.551,-2.75 c 0.146,-0.01 0.29,-0.016 0.434,-0.016 2.897,0 5.401,2.166 5.825,5.038 l 1.959,13.286 h 28.005 l 1.959,-13.286 c 0.423,-2.871 2.93,-5.037 5.831,-5.037 0.142,0 0.284,0.005 0.423,0.015 l 38.556,2.75 c 2.911,0.209 5.26,2.562 5.463,5.472 l 1.003,14.374 30.645,4.966 z" /><path
         d="m 26.338339,1054.9678 c -0.16611,0.088 -0.332108,0.2084 -0.49438,0.347 -3.215379,2.7569 -6.448944,5.8826 -9.523584,9.5841 -0.711819,0.857 -1.152851,2.0229 -1.13229,2.993 0.05552,2.6093 0.242462,5.0702 0.478429,7.5262 -0.799892,1.0569 -1.598968,2.0602 -2.480586,3.4471 -0.627629,0.9603 -1.327586,2.1227 -2.012275,3.2203 -1.5949586,-0.3044 -3.2064707,-0.5934 -4.9132929,-0.6567 -0.818375,-0.031 -1.8106686,0.7682 -2.4341924,1.9597 -2.3207704,4.4329 -4.52685702,9.0888 -6.3485857,13.9737 -0.386466,1.037 -0.3769796,2.0399 0.024646,2.6059 1.2048113,1.6998 2.48800847,3.1969 3.8390509,4.5863 v 27.2752 c 0,7.525 4.0618122,10.8962 9.8717179,10.9315 5.809757,0.036 13.498548,-2.8847 21.953976,-7.7805 l 0.05512,-0.032 c 8.455428,-4.969 16.144071,-11.0183 21.952492,-17.8317 5.808421,-6.8134 9.868749,-14.9226 9.868749,-22.4467 l 0.0029,-26.5686 c 1.372272,-3.2821 2.510796,-6.346 3.840461,-9.7721 0.40103,-1.0338 0.410509,-2.0469 0.02464,-2.6329 -1.821358,-2.76 -4.029448,-4.8424 -6.35007,-6.568 -0.623287,-0.4633 -1.614704,-0.105 -2.432708,0.8793 -1.706154,2.054 -3.31826,4.2255 -4.913294,6.3907 -0.684599,-0.2993 -1.382515,-0.6463 -2.012274,-0.8744 -0.0025,0 -0.0048,0 -0.0073,-0.01 -0.879985,-0.3569 -1.676388,-0.4286 -2.473311,-0.5519 0.23538,-2.7307 0.422675,-5.4106 0.478429,-8.0844 0.02063,-0.9942 -0.420441,-1.6456 -1.13229,-1.672 -3.074789,-0.1141 -6.308057,0.5324 -9.525068,1.5276 -0.867589,0.2686 -1.760787,1.2653 -2.215291,2.4719 -1.039578,2.7605 -1.931217,5.5697 -2.793758,8.334 -0.768419,0.3622 -1.548269,0.6854 -2.292118,1.1083 -0.0082,0 -0.01643,0.01 -0.02464,0.014 l -0.04494,0.026 c -0.0082,0 -0.01643,0.01 -0.02464,0.014 -0.745334,0.4457 -1.526223,1.0326 -2.295013,1.5675 -0.827803,-1.6882 -1.689973,-3.3741 -2.683528,-4.8726 -0.03287,-0.073 -0.07015,-0.1406 -0.111633,-0.203 -0.362253,-0.5386 -1.011668,-0.6276 -1.719441,-0.2356 z"
         fill="#ffffff"
         id="path34948"
         inkscape:original-d="m 40.764,1026.7 c -0.22378,-0.01 -0.44741,0.016 -0.66602,0.064 -4.3317,0.963 -8.6879,2.3175 -12.83,4.4024 -0.95895,0.4827 -1.5531,1.4756 -1.5254,2.5488 0.07479,2.8867 0.32664,5.695 0.64453,8.5293 -1.0776,0.645 -2.1541,1.232 -3.3418,2.1856 -0.84553,0.6493 -1.7885,1.4733 -2.7109,2.2363 -2.1487,-1.3494 -4.3197,-2.6924 -6.6191,-3.8496 -1.1025,-0.5551 -2.4393,-0.3147 -3.2793,0.5898 -3.1265,3.3648 -6.0985,7.0462 -8.5527,11.223 -0.52064,0.8868 -0.50786,1.9888 0.033203,2.8633 1.6231,2.6255 3.3518,5.0794 5.1719,7.4589 v 29.805 c 0,8.223 5.472,14.496 13.299,18.238 7.8268,3.7426 18.185,5.4523 29.576,5.4922 h 0.07425 c 11.391,-0.04 21.749,-1.7494 29.574,-5.4922 7.825,-3.7428 13.295,-10.016 13.295,-18.238 l 0.0039,-29.031 c 1.8487,-2.7118 3.3825,-5.3341 5.1738,-8.2305 0.54026,-0.874 0.55303,-1.975 0.0332,-2.8613 -2.4537,-4.1771 -5.4284,-7.8601 -8.5547,-11.225 -0.83968,-0.9036 -2.1753,-1.144 -3.2773,-0.5899 -2.2985,1.157 -4.4703,2.5023 -6.6191,3.8516 -0.92228,-0.7635 -1.8625,-1.5876 -2.7109,-2.2383 -0.0034,0 -0.0064,0 -0.0098,-0.01 -1.1855,-0.951 -2.2584,-1.537 -3.332,-2.1797 0.3171,-2.834 0.56942,-5.643 0.64453,-8.5293 0.02779,-1.0733 -0.56641,-2.0662 -1.5254,-2.5489 -4.1423,-2.0846 -8.4981,-3.4392 -12.832,-4.4023 -1.1688,-0.2595 -2.3721,0.2603 -2.9844,1.2891 -1.4005,2.3538 -2.6017,4.8552 -3.7637,7.3261 -1.0352,-0.094 -2.0858,-0.238 -3.0879,-0.25 -0.01107,-10e-5 -0.02213,-10e-5 -0.0332,0 h -0.06054 c -0.01107,-10e-5 -0.02213,-10e-5 -0.0332,0 -1.0041,0.012 -2.0561,0.1556 -3.0918,0.25 -1.1152,-2.3725 -2.2767,-4.7643 -3.6152,-7.0351 -0.04428,-0.1006 -0.0945,-0.1984 -0.15039,-0.293 -0.48802,-0.8195 -1.3629,-1.3307 -2.3164,-1.3535 z" /><path
         d="m 26.29009,1057.4668 c -3.101066,2.6588 -6.168655,5.6315 -9.044807,9.0939 0.0658,3.0925 0.229962,5.9965 0.562782,8.8495 -1.116924,1.5338 -2.290707,2.9756 -3.333996,4.6169 -1.059991,1.6235 -2.142547,3.2169 -3.102402,4.9526 -1.9174101,-0.4451 -3.9468317,-0.7305 -6.0375663,-0.808 -2.2535932,4.3047 -4.36080676,8.761 -6.0821036,13.3763 1.29507379,1.8272 2.647007,3.4596 4.106795,4.9056 l 0.040868,-0.024 v 22.1642 c 0.032866,-0.019 0.065732,-0.038 0.098294,-0.048 l 11.0215256,-5.119 c 0.577331,-0.2681 1.029779,0.041 1.070011,0.7306 l 0.339895,5.7999 9.614143,-4.7627 0.662361,-5.9222 c 0.08587,-0.7679 0.585236,-1.5912 1.174154,-1.9347 l 11.627977,-6.783 c 0.588599,-0.3434 1.087975,-0.1027 1.173858,0.565 l 0.66236,5.1495 9.614886,-6.4543 0.339612,-6.1963 c 0.04051,-0.7368 0.492651,-1.5731 1.070012,-1.9789 l 11.017072,-7.7368 c 0.03259,-0.019 0.06516,-0.047 0.09801,-0.066 v -1.7686 l 0.0043,-0 v -20.3934 l 0.04087,-0.024 c 1.460085,-3.1491 2.811128,-6.3583 4.106795,-9.6968 -1.720703,-2.6075 -3.829104,-4.6049 -6.082697,-6.2802 -2.090067,2.5163 -4.120231,5.1699 -6.037715,7.8519 -0.959484,-0.616 -2.040184,-0.9474 -3.101659,-1.3335 -1.042918,-0.4244 -2.218186,-0.4959 -3.332958,-0.7278 0.331908,-3.2408 0.495991,-6.3363 0.56207,-9.5056 -2.876301,-0.1067 -5.943518,0.4991 -9.046291,1.4592 -1.238734,3.2892 -2.371544,6.7294 -3.358122,10.022 -1.169923,0.4415 -2.345266,1.0378 -3.522167,1.7071 l -0.02286,0.013 -0.02229,0.013 c -1.179054,0.7052 -2.353357,1.4794 -3.523578,2.403 -0.985984,-2.142 -2.118125,-4.2609 -3.358715,-6.1039 z m -22.9085616,70.0697 c 0.00428,1.3106 0.018148,2.7411 0.018148,3.0276 0,12.9041 13.278088,11.3603 29.774746,1.8086 l 0.04044,-0.024 c 16.496658,-9.6944 29.770293,-23.6395 29.770293,-36.5432 0,-0.2918 0.0143,-1.7328 0.01914,-3.0494 l -9.906605,6.9568 -0.341469,6.2294 c -0.04109,0.7506 -0.510042,1.6026 -1.099554,1.9986 l -11.740063,7.8812 -0.08558,0.05 c -0.583418,0.3403 -1.086788,0.1062 -1.172967,-0.5658 l -0.673228,-5.2362 -9.579256,5.5879 -0.67322,6.0216 c -0.09043,0.8102 -0.639824,1.6754 -1.258553,1.9803 l -11.740062,5.8156 c -0.589512,0.2918 -1.058432,-0.013 -1.099555,-0.7158 l -0.341327,-5.8311 z"
         fill="#478cbf"
         id="path34950"
         inkscape:original-d="m 40.699,1029.4 c -4.1777,0.9287 -8.3103,2.2217 -12.185,4.1719 0.08864,3.4213 0.3098,6.6993 0.75817,10.029 -1.5047,0.9641 -3.086,1.7915 -4.4915,2.9199 -1.428,1.0985 -2.8864,2.1496 -4.1795,3.4344 -2.5831,-1.7086 -5.3171,-3.3141 -8.1337,-4.7315 -3.036,3.2674 -5.8748,6.7939 -8.1937,10.74 1.7447,2.8222 3.566,5.4678 5.5326,7.9784 h 0.055057 v 24.22 c 0.044277,4e-4 0.088553,0 0.13242,0.01 l 14.848,1.4317 c 0.77777,0.075 1.3873,0.701 1.4415,1.4804 l 0.4579,6.5545 12.952,0.924 0.89232,-6.0493 c 0.11568,-0.7844 0.78842,-1.3657 1.5818,-1.3657 h 15.665 c 0.79295,0 1.4657,0.5813 1.5814,1.3657 l 0.89232,6.0493 12.953,-0.924 0.45752,-6.5545 c 0.05457,-0.7794 0.66369,-1.405 1.4415,-1.4804 l 14.842,-1.4317 c 0.0439,0 0.08778,-0.01 0.13204,-0.01 v -1.9326 h 0.0058 v -22.285 h 0.05506 c 1.967,-2.5105 3.7871,-5.1561 5.5326,-7.9784 -2.3181,-3.9462 -5.1585,-7.4728 -8.1945,-10.74 -2.8157,1.4174 -5.5507,3.023 -8.1339,4.7315 -1.2926,-1.2848 -2.7485,-2.3358 -4.1785,-3.4343 -1.405,-1.1286 -2.9883,-1.9559 -4.4901,-2.9199 0.44714,-3.3298 0.66819,-6.6079 0.75721,-10.029 -3.8749,-1.9501 -8.007,-3.2432 -12.187,-4.1719 -1.6688,2.8047 -3.1949,5.8418 -4.524,8.811 -1.5761,-0.2633 -3.1595,-0.3609 -4.745,-0.3798 h -0.0308 -0.03003 c -1.5884,0.019 -3.1704,0.1165 -4.7469,0.3798 -1.3283,-2.9692 -2.8535,-6.0063 -4.5248,-8.811 z m -30.862,61.966 c 0.00577,1.4349 0.024448,3.007 0.024448,3.32 0,14.101 17.888,20.878 40.112,20.956 h 0.05448 c 22.224,-0.078 40.106,-6.8554 40.106,-20.956 0,-0.3188 0.01926,-1.8844 0.02579,-3.32 l -13.346,1.2872 -0.46002,6.5895 c -0.05535,0.7941 -0.68712,1.4261 -1.4813,1.4831 l -15.816,1.1286 h -0.11529 c -0.78597,0 -1.4641,-0.5767 -1.5802,-1.366 l -0.90696,-6.151 h -12.905 l -0.90695,6.151 c -0.12183,0.8277 -0.86196,1.4229 -1.6955,1.3617 l -15.816,-1.1285 c -0.79418,-0.057 -1.4259,-0.6889 -1.4813,-1.4831 l -0.45983,-6.5896 z"
         style="fill:#00c800;fill-opacity:1" /><g
         fill="#ffffff"
         stroke-width="0.32031"
         id="g34958"><path
           d="m -33.366439,-62.1864 c 0,-11.029031 -7.248464,-24.191622 -16.191577,-29.408438 -8.938659,-5.214218 -16.18935,-0.509467 -16.18935,10.519564 0,11.02171 7.250691,24.181025 16.18935,29.395242 8.943113,5.216816 16.191577,0.515342 16.191577,-10.506368"
           transform="matrix(0.41022,0,0,-0.41022,37.9,1073.8)"
           id="path34952"
           inkscape:original-d="m 0,0 c 0,-12.052 -9.765,-21.815 -21.813,-21.815 -12.042,0 -21.81,9.763 -21.81,21.815 0,12.044 9.768,21.802 21.81,21.802 C -9.765,21.802 0,12.044 0,0" /><path
           d="m -40.967941,-47.386653 c -2.878601,-1.679184 -5.211619,-0.424698 -5.211619,2.799271 v 18.376533 c 0,3.221224 2.333018,7.200311 5.211619,8.879495 2.878602,1.679184 5.216816,0.424983 5.216816,-2.796241 v -18.376532 c 0,-3.22397 -2.338214,-7.203342 -5.216816,-8.882526"
           transform="matrix(0.41022,0,0,-0.41022,50,1083.6)"
           id="path34954"
           inkscape:original-d="m 0,0 c -3.878,0 -7.021,2.858 -7.021,6.381 v 20.081 c 0,3.52 3.143,6.381 7.021,6.381 3.878,0 7.028,-2.861 7.028,-6.381 V 6.381 C 7.028,2.858 3.878,0 0,0" /><path
           d="m -48.570071,-36.641334 c 0,-11.029031 7.248465,-15.73508 16.193062,-10.517399 8.937917,5.213785 16.187866,18.377243 16.187866,29.406274 0,11.02171 -7.249949,15.722318 -16.187866,10.5085331 -8.944597,-5.2176821 -16.193062,-18.3756981 -16.193062,-29.3974081"
           transform="matrix(0.41022,0,0,-0.41022,62.101,1073.8)"
           id="path34956"
           inkscape:original-d="m 0,0 c 0,-12.052 9.765,-21.815 21.815,-21.815 12.041,0 21.808,9.763 21.808,21.815 0,12.044 -9.767,21.802 -21.808,21.802 C 9.765,21.802 0,12.044 0,0" /></g><path
         d="m 18.205065,1097.8727 c -2.434787,1.4203 -4.408833,5.0062 -4.408833,8.0071 0,3.0011 1.974046,4.2817 4.408833,2.8614 2.436048,-1.4211 4.408981,-5.004 4.408981,-8.0051 0,-3.0009 -1.972933,-4.2844 -4.408981,-2.8634 z m 29.975906,-17.4859 c -2.434192,1.4199 -4.406383,5.0047 -4.406383,8.0057 0,3.001 1.972191,4.2827 4.406383,2.8627 2.436642,-1.4213 4.408908,-5.004 4.408908,-8.005 0,-3.001 -1.97234,-4.2847 -4.408908,-2.8634 z"
         fill="#414042"
         id="path34960"
         inkscape:original-d="m 29.807,1068.4 c -3.2801,0 -5.9395,2.6601 -5.9395,5.9394 0,3.2794 2.6594,5.9371 5.9395,5.9371 3.2818,0 5.9397,-2.6577 5.9397,-5.9371 0,-3.2793 -2.6579,-5.9394 -5.9397,-5.9394 z m 40.383,0 c -3.2793,0 -5.9362,2.6601 -5.9362,5.9394 0,3.2794 2.6569,5.9371 5.9362,5.9371 3.2826,0 5.9396,-2.6577 5.9396,-5.9371 0,-3.2793 -2.6571,-5.9394 -5.9396,-5.9394 z" /></g><g
       transform="matrix(0.14905364,0,0,0.14905364,16.391997,-144.50473)"
       id="g34984"
       inkscape:path-effect="#path-effect34988"
       inkscape:label="GodotYellow"
       style="display:inline"><path
         d="m -183.78369,82.189536 c 0,0 1.32283,1.053101 1.16768,1.127135 l -29.59586,14.069559 c -2.35511,1.119413 -5.81583,1.037049 -8.22873,-0.195546 l -11.91303,-6.088455 -22.34461,11.206861 8.71471,6.73245 c 1.93803,1.49771 1.77457,3.5743 -0.3803,4.83131 l -28.34658,16.5355 c -2.15413,1.25657 -5.71399,1.35192 -8.28149,0.2214 l -11.54209,-5.08314 -19.21176,13.03435 10.43735,6.94927 c 2.1138,1.40798 2.255,3.42673 0.33601,4.80055 l -24.13339,17.27158 c -0.12469,0.0892 -1.79202,-0.76477 -1.93083,-0.68379 l -6.17814,-3.56148 18.87911,-15.53717 -10.52955,-7.0117 c -2.13188,-1.4194 -2.23465,-3.51273 -0.23704,-4.86927 l 26.45896,-17.95097 c 0.10053,-0.0678 0.20271,-0.13289 0.3096,-0.19524 2.15042,-1.25441 5.7081,-1.34757 8.27559,-0.21705 l 11.87554,5.23089 20.78784,-12.12624 -8.96724,-6.9274 c -1.938,-1.49681 -1.77606,-3.57342 0.37732,-4.829566 0.10541,-0.06149 0.21474,-0.120685 0.32576,-0.176296 l 30.77681,-15.43656 c 2.32475,-1.164841 5.91405,-1.105325 8.34731,0.138276 l 12.01933,6.142669 26.64276,-10.997123 z"
         fill="#ffffff"
         stroke-width="0.32031"
         transform="matrix(0.41022,0,0,-0.41022,90.133,1088.2)"
         id="path34968"
         inkscape:original-d="m 0,0 c 0,0 -0.325,1.994 -0.515,1.976 l -36.182,-3.491 c -2.879,-0.278 -5.115,-2.574 -5.317,-5.459 l -0.994,-14.247 -27.992,-1.997 -1.904,12.912 c -0.424,2.872 -2.932,5.037 -5.835,5.037 h -38.188 c -2.902,0 -5.41,-2.165 -5.834,-5.037 l -1.905,-12.912 -27.992,1.997 -0.994,14.247 c -0.202,2.886 -2.438,5.182 -5.317,5.46 l -36.2,3.49 c -0.187,0.018 -0.324,-1.978 -0.511,-1.978 l -0.049,-7.83 30.658,-4.944 1.004,-14.374 c 0.203,-2.91 2.551,-5.263 5.463,-5.472 l 38.551,-2.75 c 0.146,-0.01 0.29,-0.016 0.434,-0.016 2.897,0 5.401,2.166 5.825,5.038 l 1.959,13.286 h 28.005 l 1.959,-13.286 c 0.423,-2.871 2.93,-5.037 5.831,-5.037 0.142,0 0.284,0.005 0.423,0.015 l 38.556,2.75 c 2.911,0.209 5.26,2.562 5.463,5.472 l 1.003,14.374 30.645,4.966 z" /><path
         d="m 26.33504,1004.9674 c -0.158266,-0.1015 -0.344658,-0.1864 -0.544581,-0.2591 -3.970745,-1.4351 -8.266764,-2.7015 -12.976776,-3.5411 -1.090443,-0.1944 -2.310295,0 -3.1315392,0.5057 -2.2087791,1.3532 -4.2246323,2.7473 -6.2118588,4.1818 -1.3058227,-0.1715 -2.56533423,-0.369 -4.19494539,-0.447 -1.13693221,-0.069 -2.48322591,-0.1003 -3.76640301,-0.1506 -0.5365046,-1.5478 -1.0945823,-3.1024 -1.8937094,-4.6275 -0.3829607,-0.73136 -1.5638212,-1.2002 -2.8968245,-1.15006 -4.9600817,0.18581 -10.0538167,0.58336 -15.1517797,1.43186 -1.082062,0.1803 -1.936972,0.6901 -2.221295,1.3245 -0.854602,1.9041 -1.496217,3.7755 -2.011628,5.6523 l -23.378712,13.6376 c -6.450031,3.7625 -7.308692,9.0022 -4.433971,14.1035 2.874102,5.1015 9.221822,10.3689 17.645953,15.3195 l 0.05512,0.032 c 8.486804,4.9141 17.516282,8.617 26.260515,10.2927 8.7442335,1.6756 17.7251913,1.1738 24.174438,-2.5883 l 22.77449,-13.2817 c 3.499378,-0.4403 6.694806,-0.976 10.296375,-1.5257 1.086585,-0.166 1.959676,-0.6642 2.269015,-1.2948 1.455113,-2.9738 2.135926,-5.947 2.454693,-8.8403 0.08549,-0.7771 -0.717363,-1.4654 -1.969997,-1.689 -2.613693,-0.4659 -5.281037,-0.7907 -7.934446,-1.1038 -0.08572,-0.7487 -0.13722,-1.5329 -0.256578,-2.198 -0.0025,-0 -0.0048,-0 5.7e-4,-0.01 -0.134032,-0.9484 -0.470783,-1.6811 -0.763579,-2.4401 2.458338,-1.1594 4.84898,-2.3354 7.168715,-3.6236 0.862513,-0.479 1.200263,-1.1906 0.867039,-1.8268 -1.439653,-2.7474 -3.610388,-5.2533 -6.071955,-7.5706 -0.66404,-0.6248 -1.964963,-0.908 -3.226446,-0.7024 -2.885872,0.4706 -5.739581,1.095 -8.540269,1.7225 -0.694686,-0.4913 -1.361584,-1.0121 -2.09602,-1.4515 -0.0081,-0 -0.01635,-0.01 -0.02464,-0.014 l -0.04494,-0.026 c -0.0081,-0 -0.01635,-0.01 -0.02464,-0.014 -0.754746,-0.4292 -1.648274,-0.8191 -2.49111,-1.2243 1.03316,-1.5685 2.047091,-3.1658 2.834726,-4.7844 0.04604,-0.065 0.08548,-0.1317 0.118193,-0.1992 0.280554,-0.5863 0.03212,-1.199 -0.657771,-1.6223 z"
         fill="#ffffff"
         id="path34970"
         inkscape:original-d="m 40.764,1026.7 c -0.22378,-0.01 -0.44741,0.016 -0.66602,0.064 -4.3317,0.963 -8.6879,2.3175 -12.83,4.4024 -0.95895,0.4827 -1.5531,1.4756 -1.5254,2.5488 0.07479,2.8867 0.32664,5.695 0.64453,8.5293 -1.0776,0.645 -2.1541,1.232 -3.3418,2.1856 -0.84553,0.6493 -1.7885,1.4733 -2.7109,2.2363 -2.1487,-1.3494 -4.3197,-2.6924 -6.6191,-3.8496 -1.1025,-0.5551 -2.4393,-0.3147 -3.2793,0.5898 -3.1265,3.3648 -6.0985,7.0462 -8.5527,11.223 -0.52064,0.8868 -0.50786,1.9888 0.033203,2.8633 1.6231,2.6255 3.3518,5.0794 5.1719,7.4589 v 29.805 c 0,8.223 5.472,14.496 13.299,18.238 7.8268,3.7426 18.185,5.4523 29.576,5.4922 h 0.07425 c 11.391,-0.04 21.749,-1.7494 29.574,-5.4922 7.825,-3.7428 13.295,-10.016 13.295,-18.238 l 0.0039,-29.031 c 1.8487,-2.7118 3.3825,-5.3341 5.1738,-8.2305 0.54026,-0.874 0.55303,-1.975 0.0332,-2.8613 -2.4537,-4.1771 -5.4284,-7.8601 -8.5547,-11.225 -0.83968,-0.9036 -2.1753,-1.144 -3.2773,-0.5899 -2.2985,1.157 -4.4703,2.5023 -6.6191,3.8516 -0.92228,-0.7635 -1.8625,-1.5876 -2.7109,-2.2383 -0.0034,0 -0.0064,0 -0.0098,-0.01 -1.1855,-0.951 -2.2584,-1.537 -3.332,-2.1797 0.3171,-2.834 0.56942,-5.643 0.64453,-8.5293 0.02779,-1.0733 -0.56641,-2.0662 -1.5254,-2.5489 -4.1423,-2.0846 -8.4981,-3.4392 -12.832,-4.4023 -1.1688,-0.2595 -2.3721,0.2603 -2.9844,1.2891 -1.4005,2.3538 -2.6017,4.8552 -3.7637,7.3261 -1.0352,-0.094 -2.0858,-0.238 -3.0879,-0.25 -0.01107,-10e-5 -0.02213,-10e-5 -0.0332,0 h -0.06054 c -0.01107,-10e-5 -0.02213,-10e-5 -0.0332,0 -1.0041,0.012 -2.0561,0.1556 -3.0918,0.25 -1.1152,-2.3725 -2.2767,-4.7643 -3.6152,-7.0351 -0.04428,-0.1006 -0.0945,-0.1984 -0.15039,-0.293 -0.48802,-0.8195 -1.3629,-1.3307 -2.3164,-1.3535 z"
         style="display:inline" /><path
         d="m 24.168942,1006.1746 c -3.829528,-1.384 -7.911331,-2.5818 -12.317198,-3.3672 -2.6178322,1.6038 -5.0248936,3.1995 -7.3038523,4.9171 -1.8731533,-0.2104 -3.69593999,-0.5165 -5.6243331,-0.6088 -1.9216414,-0.1157 -3.8286685,-0.2662 -5.7963066,-0.2382 -0.5772029,-1.9003 -1.3472879,-3.8188 -2.3262295,-5.6869 -4.8165045,0.1804 -9.6898645,0.5648 -14.5064385,1.3663 -0.918628,2.0468 -1.641875,4.0459 -2.151374,6.0462 l 0.04087,0.024 -18.9979,11.0821 c 0.03255,0.019 0.06573,0.038 0.09045,0.062 l 9.898514,7.0843 c 0.518502,0.3711 0.479923,0.9214 -0.0912,1.3015 l -4.801383,3.1974 8.889367,6.031 5.407365,-2.3815 c 0.701143,-0.3088 1.656476,-0.2835 2.245394,0.06 l 11.627977,6.783 c 0.588599,0.3433 0.63201,0.9006 0.102618,1.3096 l -4.082644,3.1543 10.3396617,5.1859 5.48089038,-2.8009 c 0.65185956,-0.333 1.59471722,-0.3555 2.23122092,-0.053 l 12.140083,5.7715 c 0.03259,0.019 0.073,0.033 0.105856,0.053 l 1.51591,-0.8843 0.0043,0 17.480107,-10.1967 0.04087,0.024 c 3.429294,-0.2969 6.855515,-0.7194 10.364964,-1.2549 1.374652,-2.8094 2.032476,-5.6529 2.341637,-8.4625 -3.201859,-0.5706 -6.491438,-1.0202 -9.749051,-1.357 0.0483,-1.1476 -0.20801,-2.2589 -0.407834,-3.3807 -0.157656,-1.1248 -0.684,-2.1889 -1.042621,-3.2803 2.943766,-1.3299 5.679154,-2.7342 8.428705,-4.261 -1.346664,-2.5701 -3.399589,-4.951 -5.773901,-7.1859 -3.438709,0.5608 -6.953785,1.2896 -10.26937,2.0727 -0.963394,-0.8029 -2.06218,-1.5332 -3.224256,-2.2284 l -0.02286,-0.013 -0.02229,-0.013 c -1.193957,-0.6791 -2.444738,-1.3195 -3.821488,-1.8817 1.343023,-1.9337 2.593149,-3.9838 3.552534,-5.9908 z m -71.513999,14.9899 c -1.121237,0.659 -2.34051,1.3864 -2.586024,1.5297 -11.060669,6.452 -3.098388,17.2984 13.337087,26.9572 l 0.04044,0.024 c 16.557841,9.5873 35.147596,14.2292 46.2079519,7.7773 0.2500632,-0.1458 1.4923991,-0.8538 2.6233151,-1.5079 l -10.9162727,-5.1899 -5.5101997,2.8159 c -0.6639691,0.3394 -1.6286597,0.355 -2.262882,0.037 l -12.6253246,-6.3319 -0.08558,-0.05 c -0.583418,-0.3403 -0.63443,-0.8978 -0.101492,-1.3092 l 4.15155,-3.2072 -9.579256,-5.5879 -5.497997,2.4218 c -0.739672,0.3259 -1.755932,0.2778 -2.326656,-0.1111 l -10.854878,-7.3648 c -0.544802,-0.3699 -0.518066,-0.9326 0.06377,-1.32 l 4.827482,-3.2142 z"
         fill="#478cbf"
         id="path34972"
         inkscape:original-d="m 40.699,1029.4 c -4.1777,0.9287 -8.3103,2.2217 -12.185,4.1719 0.08864,3.4213 0.3098,6.6993 0.75817,10.029 -1.5047,0.9641 -3.086,1.7915 -4.4915,2.9199 -1.428,1.0985 -2.8864,2.1496 -4.1795,3.4344 -2.5831,-1.7086 -5.3171,-3.3141 -8.1337,-4.7315 -3.036,3.2674 -5.8748,6.7939 -8.1937,10.74 1.7447,2.8222 3.566,5.4678 5.5326,7.9784 h 0.055057 v 24.22 c 0.044277,4e-4 0.088553,0 0.13242,0.01 l 14.848,1.4317 c 0.77777,0.075 1.3873,0.701 1.4415,1.4804 l 0.4579,6.5545 12.952,0.924 0.89232,-6.0493 c 0.11568,-0.7844 0.78842,-1.3657 1.5818,-1.3657 h 15.665 c 0.79295,0 1.4657,0.5813 1.5814,1.3657 l 0.89232,6.0493 12.953,-0.924 0.45752,-6.5545 c 0.05457,-0.7794 0.66369,-1.405 1.4415,-1.4804 l 14.842,-1.4317 c 0.0439,0 0.08778,-0.01 0.13204,-0.01 v -1.9326 h 0.0058 v -22.285 h 0.05506 c 1.967,-2.5105 3.7871,-5.1561 5.5326,-7.9784 -2.3181,-3.9462 -5.1585,-7.4728 -8.1945,-10.74 -2.8157,1.4174 -5.5507,3.023 -8.1339,4.7315 -1.2926,-1.2848 -2.7485,-2.3358 -4.1785,-3.4343 -1.405,-1.1286 -2.9883,-1.9559 -4.4901,-2.9199 0.44714,-3.3298 0.66819,-6.6079 0.75721,-10.029 -3.8749,-1.9501 -8.007,-3.2432 -12.187,-4.1719 -1.6688,2.8047 -3.1949,5.8418 -4.524,8.811 -1.5761,-0.2633 -3.1595,-0.3609 -4.745,-0.3798 h -0.0308 -0.03003 c -1.5884,0.019 -3.1704,0.1165 -4.7469,0.3798 -1.3283,-2.9692 -2.8535,-6.0063 -4.5248,-8.811 z m -30.862,61.966 c 0.00577,1.4349 0.024448,3.007 0.024448,3.32 0,14.101 17.888,20.878 40.112,20.956 h 0.05448 c 22.224,-0.078 40.106,-6.8554 40.106,-20.956 0,-0.3188 0.01926,-1.8844 0.02579,-3.32 l -13.346,1.2872 -0.46002,6.5895 c -0.05535,0.7941 -0.68712,1.4261 -1.4813,1.4831 l -15.816,1.1286 h -0.11529 c -0.78597,0 -1.4641,-0.5767 -1.5802,-1.366 l -0.90696,-6.151 h -12.905 l -0.90695,6.151 c -0.12183,0.8277 -0.86196,1.4229 -1.6955,1.3617 l -15.816,-1.1285 c -0.79418,-0.057 -1.4259,-0.6889 -1.4813,-1.4831 l -0.45983,-6.5896 z"
         style="display:inline;fill:#e6dc00;fill-opacity:1" /><g
         fill="#ffffff"
         stroke-width="0.32031"
         id="g34980"
         style="display:inline"><path
           d="m -123.43521,118.2821 c -9.45346,-5.51452 -24.35991,-5.75341 -33.30302,-0.53659 -8.93866,5.21421 -8.53136,13.91094 0.9221,19.42546 9.44718,5.51085 24.35193,5.74615 33.29059,0.53194 8.94311,-5.21682 8.53751,-13.90996 -0.90967,-19.42081"
           transform="matrix(0.41022,0,0,-0.41022,37.9,1073.8)"
           id="path34974"
           inkscape:original-d="m 0,0 c 0,-12.052 -9.765,-21.815 -21.813,-21.815 -12.042,0 -21.81,9.763 -21.81,21.815 0,12.044 9.768,21.802 21.81,21.802 C -9.765,21.802 0,12.044 0,0" /><path
           d="m -149.77547,118.46878 c -2.8786,1.67918 -2.96983,4.34782 -0.20643,5.9598 l 15.75131,9.18826 c 2.76105,1.61062 7.33821,1.55877 10.21681,-0.12042 2.8786,-1.67918 2.97268,-4.35222 0.21163,-5.96283 l -15.75132,-9.18826 c -2.7634,-1.61199 -7.3434,-1.55574 -10.222,0.12345"
           transform="matrix(0.41022,0,0,-0.41022,50,1083.6)"
           id="path34976"
           inkscape:original-d="m 0,0 c -3.878,0 -7.021,2.858 -7.021,6.381 v 20.081 c 0,3.52 3.143,6.381 7.021,6.381 3.878,0 7.028,-2.861 7.028,-6.381 V 6.381 C 7.028,2.858 3.878,0 0,0" /><path
           d="m -138.63884,92.737037 c -9.45346,-5.514515 -9.86298,-14.209945 -0.91838,-19.427626 8.93791,-5.213785 23.84585,-4.975761 33.29931,0.538754 9.447178,5.510854 9.851295,14.204863 0.91338,19.418647 -8.9446,5.217681 -23.84713,4.981079 -33.29431,-0.529775"
           transform="matrix(0.41022,0,0,-0.41022,62.101,1073.8)"
           id="path34978"
           inkscape:original-d="m 0,0 c 0,-12.052 9.765,-21.815 21.815,-21.815 12.041,0 21.808,9.763 21.808,21.815 0,12.044 -9.767,21.802 -21.808,21.802 C 9.765,21.802 0,12.044 0,0" /></g><path
         d="m -14.507247,1019.3032 c -2.434786,-1.4203 -6.495385,-1.3547 -9.067631,0.1458 -2.572325,1.5005 -2.682949,3.8681 -0.248163,5.2884 2.436047,1.421 6.493651,1.3559 9.065976,-0.1447 2.572247,-1.5004 2.685866,-3.8685 0.249818,-5.2895 z m 29.975907,17.4859 c -2.434192,-1.4199 -6.4929363,-1.3532 -9.0651828,0.1473 -2.572325,1.5005 -2.6848044,3.867 -0.2506118,5.287 2.4366422,1.4213 6.4935776,1.3558 9.0659036,-0.1448 2.572246,-1.5004 2.686459,-3.8681 0.249891,-5.2895 z"
         fill="#414042"
         id="path34982"
         inkscape:original-d="m 29.807,1068.4 c -3.2801,0 -5.9395,2.6601 -5.9395,5.9394 0,3.2794 2.6594,5.9371 5.9395,5.9371 3.2818,0 5.9397,-2.6577 5.9397,-5.9371 0,-3.2793 -2.6579,-5.9394 -5.9397,-5.9394 z m 40.383,0 c -3.2793,0 -5.9362,2.6601 -5.9362,5.9394 0,3.2794 2.6569,5.9371 5.9362,5.9371 3.2826,0 5.9396,-2.6577 5.9396,-5.9371 0,-3.2793 -2.6571,-5.9394 -5.9396,-5.9394 z"
         style="display:inline" /></g><path
       style="fill:none;fill-opacity:1;stroke:#000000;stroke-width:0.33333333;stroke-linecap:round;stroke-linejoin:round;stroke-dasharray:none;stroke-dashoffset:0;stroke-opacity:1"
       d="M 20,4.3333333 8,11.333333 v 14"
       id="path4011"
       sodipodi:nodetypes="ccc" /><path
       style="fill:none;fill-opacity:1;stroke:#000000;stroke-width:0.33333333;stroke-linecap:round;stroke-linejoin:round;stroke-dasharray:none;stroke-dashoffset:0;stroke-opacity:1"
       d="M 24,6.6666667 12,13.666667 v 14"
       id="path4013"
       sodipodi:nodetypes="ccc" /><path
       style="fill:none;fill-opacity:1;stroke:#000000;stroke-width:0.33333333;stroke-linecap:round;stroke-linejoin:round;stroke-dasharray:none;stroke-dashoffset:0;stroke-opacity:1"
       d="m 8,6.6666667 12,7.0000003 v 14"
       id="path4015"
       sodipodi:nodetypes="ccc" /><path
       style="fill:none;fill-opacity:1;stroke:#000000;stroke-width:0.33333333;stroke-linecap:round;stroke-linejoin:round;stroke-dasharray:none;stroke-dashoffset:0;stroke-opacity:1"
       d="m 24,25.333333 v -14 L 12,4.3333333"
       id="path4017"
       sodipodi:nodetypes="ccc" /><path
       style="fill:none;fill-opacity:1;stroke:#000000;stroke-width:0.33333333;stroke-linecap:round;stroke-linejoin:round;stroke-dasharray:none;stroke-dashoffset:0;stroke-opacity:1"
       d="m 4,13.666667 12,7 12,-7"
       id="path4019"
       sodipodi:nodetypes="ccc" /><path
       style="fill:none;fill-opacity:1;stroke:#000000;stroke-width:0.33333333;stroke-linecap:round;stroke-linejoin:round;stroke-dasharray:none;stroke-dashoffset:0;stroke-opacity:1"
       d="m 28,18.333333 -12,7 -12,-7"
       id="path4021"
       sodipodi:nodetypes="ccc" /></g><metadata
     id="metadata61"><rdf:RDF><cc:Work
         rdf:about=""><cc:license
           rdf:resource="http://creativecommons.org/publicdomain/zero/1.0/" /></cc:Work><cc:License
         rdf:about="http://creativecommons.org/publicdomain/zero/1.0/"><cc:permits
           rdf:resource="http://creativecommons.org/ns#Reproduction" /><cc:permits
           rdf:resource="http://creativecommons.org/ns#Distribution" /><cc:permits
           rdf:resource="http://creativecommons.org/ns#DerivativeWorks" /></cc:License></rdf:RDF></metadata></svg>
